<?xml version="1.0" encoding="iso-8859-1"?>
<!-- Generator: Adobe Illustrator 18.0.0, SVG Export Plug-In . SVG Version: 6.00 Build 0)  -->
<!DOCTYPE svg PUBLIC "-//W3C//DTD SVG 1.1//EN" "http://www.w3.org/Graphics/SVG/1.1/DTD/svg11.dtd">
<svg version="1.1" id="Ebene_1" xmlns="http://www.w3.org/2000/svg" xmlns:xlink="http://www.w3.org/1999/xlink" x="0px" y="0px"
	 viewBox="0 0 18.57 18.57" style="enable-background:new 0 0 18.57 18.57;" xml:space="preserve">
<g>
	<path style="fill:#2E2E2D;" d="M18.57,9.585c0,6.376-2.909,8.986-9.285,8.986C2.909,18.57,0,15.961,0,9.585S2.909,0,9.285,0
		C15.661,0,18.57,3.209,18.57,9.585"/>
	<path style="fill:#FFFFFF;" d="M10.181,15.073v-5.28h1.772l0.266-2.058h-2.038V6.421c0-0.596,0.165-1.002,1.02-1.002l1.09-0.001
		v-1.84c-0.188-0.025-0.835-0.081-1.588-0.081c-1.571,0-2.647,0.959-2.647,2.72v1.517H6.28v2.058h1.777v5.28H10.181z"/>
</g>
</svg>
