<?xml version="1.0" encoding="iso-8859-1"?>
<!-- Generator: Adobe Illustrator 18.0.0, SVG Export Plug-In . SVG Version: 6.00 Build 0)  -->
<!DOCTYPE svg PUBLIC "-//W3C//DTD SVG 1.1//EN" "http://www.w3.org/Graphics/SVG/1.1/DTD/svg11.dtd">
<svg version="1.1" id="Ebene_1" xmlns="http://www.w3.org/2000/svg" xmlns:xlink="http://www.w3.org/1999/xlink" x="0px" y="0px"
	 viewBox="0 0 26.683 26.683" style="enable-background:new 0 0 26.683 26.683;" xml:space="preserve">
<g>
	<path style="fill:#2E2E2D;" d="M26.683,13.772c0,9.162-4.18,12.911-13.341,12.911C4.18,26.683,0,22.935,0,13.772
		C0,4.611,4.18,0,13.342,0C22.503,0,26.683,4.611,26.683,13.772"/>
	<g>
		<path style="fill:#FFFFFF;" d="M13.342,6.269c2.304,0,2.576,0.009,3.486,0.051c0.841,0.038,1.298,0.179,1.602,0.297
			c0.402,0.156,0.69,0.343,0.992,0.645c0.302,0.302,0.489,0.589,0.646,0.992c0.118,0.304,0.258,0.761,0.297,1.602
			c0.042,0.91,0.05,1.183,0.05,3.487c0,2.303-0.009,2.576-0.05,3.486c-0.039,0.841-0.179,1.298-0.297,1.602
			c-0.157,0.403-0.344,0.69-0.646,0.992c-0.302,0.302-0.589,0.489-0.992,0.645c-0.304,0.118-0.761,0.259-1.602,0.297
			c-0.91,0.041-1.183,0.05-3.486,0.05c-2.304,0-2.577-0.009-3.486-0.05c-0.841-0.038-1.298-0.179-1.602-0.297
			c-0.403-0.156-0.69-0.343-0.992-0.645c-0.302-0.302-0.489-0.589-0.646-0.992c-0.118-0.304-0.258-0.761-0.297-1.602
			c-0.042-0.91-0.05-1.183-0.05-3.486c0-2.304,0.009-2.577,0.05-3.487c0.039-0.841,0.179-1.298,0.297-1.602
			c0.157-0.403,0.344-0.69,0.646-0.992c0.302-0.302,0.589-0.489,0.992-0.645c0.304-0.118,0.761-0.259,1.602-0.297
			C10.765,6.278,11.038,6.269,13.342,6.269 M13.342,4.714c-2.343,0-2.637,0.01-3.557,0.052C8.866,4.808,8.239,4.954,7.69,5.167
			c-0.568,0.22-1.049,0.515-1.528,0.995c-0.48,0.48-0.775,0.961-0.995,1.528C4.954,8.239,4.808,8.866,4.766,9.784
			c-0.042,0.92-0.052,1.214-0.052,3.558c0,2.343,0.01,2.637,0.052,3.557c0.042,0.918,0.187,1.546,0.401,2.094
			c0.22,0.568,0.515,1.049,0.995,1.528c0.479,0.48,0.961,0.775,1.528,0.995c0.549,0.213,1.176,0.359,2.094,0.401
			c0.92,0.042,1.214,0.052,3.557,0.052c2.343,0,2.637-0.01,3.557-0.052c0.918-0.042,1.545-0.188,2.094-0.401
			c0.568-0.221,1.048-0.515,1.528-0.995c0.48-0.48,0.775-0.961,0.995-1.528c0.213-0.549,0.359-1.176,0.401-2.094
			c0.042-0.92,0.052-1.214,0.052-3.557c0-2.343-0.01-2.637-0.052-3.558c-0.042-0.918-0.187-1.545-0.401-2.094
			c-0.22-0.567-0.515-1.049-0.995-1.528c-0.48-0.479-0.961-0.774-1.528-0.995c-0.549-0.214-1.176-0.359-2.094-0.401
			C15.978,4.724,15.685,4.714,13.342,4.714"/>
		<path style="fill:#FFFFFF;" d="M13.342,8.911c-2.447,0-4.43,1.983-4.43,4.43s1.984,4.43,4.43,4.43c2.447,0,4.43-1.983,4.43-4.43
			S15.788,8.911,13.342,8.911 M13.342,16.218c-1.588,0-2.876-1.288-2.876-2.876c0-1.588,1.288-2.876,2.876-2.876
			c1.588,0,2.876,1.287,2.876,2.876C16.217,14.93,14.93,16.218,13.342,16.218"/>
		<path style="fill:#FFFFFF;" d="M18.982,8.736c0,0.572-0.463,1.035-1.035,1.035c-0.572,0-1.035-0.464-1.035-1.035
			c0-0.572,0.464-1.036,1.035-1.036C18.519,7.701,18.982,8.165,18.982,8.736"/>
	</g>
</g>
</svg>
