<?xml version="1.0" encoding="iso-8859-1"?>
<!-- Generator: Adobe Illustrator 18.0.0, SVG Export Plug-In . SVG Version: 6.00 Build 0)  -->
<!DOCTYPE svg PUBLIC "-//W3C//DTD SVG 1.1//EN" "http://www.w3.org/Graphics/SVG/1.1/DTD/svg11.dtd">
<svg version="1.1" id="Ebene_1" xmlns="http://www.w3.org/2000/svg" xmlns:xlink="http://www.w3.org/1999/xlink" x="0px" y="0px"
	 viewBox="0 0 55.903 55.903" style="enable-background:new 0 0 55.903 55.903;" xml:space="preserve">
<path style="fill:#D2901B;" d="M27.951,0L27.951,0C12.578,0,0,12.578,0,27.951v0c0,15.373,12.578,27.951,27.951,27.951h0
	c15.373,0,27.951-12.578,27.951-27.951v0C55.903,12.578,43.325,0,27.951,0z"/>
<path style="fill:#FEB44B;" d="M29.255,53.295h-2.608C11.991,53.295,0,41.304,0,26.648v0C0,11.991,11.991,0,26.648,0l2.608,0
	c14.656,0,26.648,11.991,26.648,26.648v0C55.903,41.304,43.911,53.295,29.255,53.295z"/>
<g>
	
		<image style="overflow:visible;opacity:0.75;" width="53" height="53" xlink:href="F93E70DBB688A987.png"  transform="matrix(1 0 0 1 2.3686 1.3136)">
	</image>
	<g>
		<path style="fill:#FFFFFF;" d="M27.703,6.697c11.098,0,20.126,9.029,20.126,20.126S38.8,46.95,27.703,46.95
			S7.576,37.921,7.576,26.823S16.605,6.697,27.703,6.697 M27.703,2.984c-13.166,0-23.839,10.673-23.839,23.839
			s10.673,23.839,23.839,23.839s23.839-10.673,23.839-23.839S40.868,2.984,27.703,2.984L27.703,2.984z"/>
	</g>
</g>
<g>
	
		<image style="overflow:visible;opacity:0.75;" width="27" height="33" xlink:href="F93E70DBB688A985.png"  transform="matrix(1 0 0 1 15.3686 11.3136)">
	</image>
	<g>
		<g>
			<path style="fill:#FFFFFF;" d="M20.78,40.654c-0.786,0-3.887-19.302-3.887-21.792c0-1.223,3.887-5.721,4.585-5.721
				c0.393,0,0.567,0.262,0.611,0.699l1.441,13.363c0.044,0.262,0.131,0.393,0.218,0.393c0.35,0,5.022-15.372,6.026-15.372
				c1.179,0,3.406,1.965,3.406,2.577c0,0.655-5.589,13.669-5.589,13.975c0,0.349,0.131,0.524,0.437,0.655l10.393,4.542
				c0.48,0.219,0.655,0.48,0.655,0.873c0,0.611-1.878,3.8-2.576,3.8c-1.18,0-9.913-4.367-11.485-4.367
				c-0.218,0-0.437,0.131-0.437,0.437c0,0.786,0.174,1.397,0.174,1.922C24.754,37.946,21.304,40.654,20.78,40.654z"/>
		</g>
	</g>
</g>
</svg>
