<?xml version="1.0" encoding="iso-8859-1"?>
<!-- Generator: Adobe Illustrator 18.0.0, SVG Export Plug-In . SVG Version: 6.00 Build 0)  -->
<!DOCTYPE svg PUBLIC "-//W3C//DTD SVG 1.1//EN" "http://www.w3.org/Graphics/SVG/1.1/DTD/svg11.dtd">
<svg version="1.1" id="Ebene_1" xmlns="http://www.w3.org/2000/svg" xmlns:xlink="http://www.w3.org/1999/xlink" x="0px" y="0px"
	 viewBox="0 0 10.265 10.265" style="enable-background:new 0 0 10.265 10.265;" xml:space="preserve">
<g>
	<path style="fill:#2E2E2D;" d="M10.265,5.298c0,3.525-1.608,4.967-5.132,4.967C1.608,10.265,0,8.823,0,5.298
		C0,1.774,1.608,0,5.133,0C8.657,0,10.265,1.774,10.265,5.298"/>
	<path style="fill:#FFFFFF;" d="M4.091,7.414c2.118,0,3.277-1.755,3.277-3.277c0-0.05-0.001-0.1-0.003-0.149
		c0.225-0.163,0.42-0.365,0.575-0.596C7.733,3.483,7.511,3.545,7.278,3.573c0.238-0.143,0.42-0.368,0.506-0.637
		c-0.222,0.132-0.469,0.228-0.731,0.28c-0.21-0.224-0.509-0.364-0.841-0.364c-0.636,0-1.152,0.516-1.152,1.152
		c0,0.09,0.01,0.178,0.03,0.263C4.133,4.218,3.284,3.759,2.716,3.062C2.618,3.232,2.56,3.43,2.56,3.641
		c0,0.4,0.203,0.752,0.513,0.959C2.884,4.594,2.707,4.542,2.551,4.456c0,0.005,0,0.01,0,0.015c0,0.558,0.397,1.023,0.924,1.129
		C3.378,5.626,3.277,5.64,3.172,5.64c-0.074,0-0.146-0.007-0.217-0.021c0.147,0.458,0.572,0.791,1.076,0.8
		C3.637,6.728,3.14,6.912,2.6,6.912c-0.093,0-0.185-0.005-0.275-0.016C2.836,7.223,3.441,7.414,4.091,7.414"/>
</g>
</svg>
